<?xml version="1.0" standalone="no"?>
<!DOCTYPE svg PUBLIC "-//W3C//DTD SVG 20010904//EN"
 "http://www.w3.org/TR/2001/REC-SVG-20010904/DTD/svg10.dtd">
<svg version="1.0" xmlns="http://www.w3.org/2000/svg"
 width="1920.000000pt" height="1376.000000pt" viewBox="0 0 1920.000000 1376.000000"
 preserveAspectRatio="xMidYMid meet">

<g transform="translate(0.000000,1376.000000) scale(0.100000,-0.100000)"
fill="#000000" stroke="none">
<path d="M16842 12523 c-23 -2 -40 -8 -37 -14 4 -5 4 -17 0 -28 -5 -17 -29
-18 -396 -24 -244 -3 -395 -9 -403 -16 -6 -6 -22 -8 -34 -4 -18 4 -22 1 -22
-19 l0 -25 -227 -6 c-124 -4 -322 -7 -439 -7 l-213 0 -3 -32 -3 -33 -432 -3
-433 -2 0 -34 0 -34 -387 -4 c-214 -3 -396 -8 -406 -13 -13 -5 -15 -11 -7 -20
8 -10 7 -16 -2 -22 -7 -4 -221 -12 -475 -17 l-463 -9 0 -27 0 -27 -122 -7
c-68 -3 -228 -7 -355 -8 -186 -1 -233 -4 -234 -15 -3 -26 -4 -31 -9 -36 -12
-11 -148 -16 -497 -16 l-373 -1 0 -35 0 -35 -434 0 c-462 0 -454 1 -447 -47
l2 -23 -238 0 c-131 0 -309 -3 -396 -7 l-159 -6 6 -27 5 -28 -439 -7 -439 -7
-3 -27 c-3 -26 -3 -26 -118 -32 -63 -4 -274 -7 -467 -8 l-353 -1 0 -35 0 -35
-217 -2 -218 -3 -2 -25 c-5 -64 -7 -69 -20 -58 -20 16 -1049 17 -1083 1 -18
-9 -20 -12 -7 -12 9 -1 17 -8 17 -16 0 -10 -10 -15 -32 -14 -31 1 -32 1 -8 9
25 8 25 8 2 9 -13 1 -20 6 -17 11 4 6 -11 10 -38 10 -39 0 -44 -2 -40 -19 3
-10 1 -21 -4 -24 -4 -2 -197 -8 -428 -12 -231 -4 -423 -9 -428 -12 -4 -2 -7
-15 -7 -29 0 -21 -5 -24 -42 -26 -24 0 -47 -2 -53 -3 -5 -2 -166 -3 -357 -4
l-348 -1 0 -35 0 -35 -435 0 -435 0 0 -35 0 -35 -332 -1 c-413 -1 -403 1 -403
-42 0 -22 -3 -22 -170 -24 -93 -2 -270 -6 -392 -9 l-222 -6 -3 -32 c-3 -27 -7
-31 -35 -34 l-33 -3 0 -140 0 -139 29 0 c27 0 28 -2 35 -61 3 -34 6 -198 6
-365 l0 -303 27 -3 c24 -3 29 -9 35 -43 4 -22 7 -232 7 -467 1 -335 4 -428 14
-429 6 -1 19 -1 28 0 9 1 19 -8 23 -21 3 -13 6 -158 6 -323 0 -165 3 -351 7
-412 l6 -113 29 0 28 0 1 -202 c1 -112 2 -207 4 -213 1 -5 3 -79 3 -162 l2
-153 30 0 30 0 1 -162 c1 -90 4 -221 8 -293 l6 -130 26 3 c24 3 27 -1 33 -42
4 -25 4 -72 0 -105 -6 -55 -9 -60 -33 -63 -25 -3 -26 -6 -29 -69 l-3 -66 38
-7 c21 -3 53 -6 71 -6 l32 0 0 -105 0 -105 -35 0 -35 0 2 -327 3 -328 33 -3
32 -3 2 -292 c0 -161 2 -303 3 -317 2 -14 3 -44 4 -67 1 -38 4 -42 29 -45 l27
-3 6 -325 c3 -179 7 -373 8 -432 l1 -108 28 0 29 0 6 -227 c4 -124 7 -320 7
-435 l0 -208 28 0 29 0 6 -107 c4 -58 7 -220 7 -359 l0 -253 33 -3 c29 -3 32
-6 35 -40 2 -29 -1 -38 -12 -38 -8 0 -18 -5 -22 -12 -4 -7 -3 -8 4 -4 7 4 12
3 12 -3 0 -5 -6 -12 -12 -14 -10 -4 -10 -6 0 -6 6 -1 12 -8 12 -16 0 -8 4 -15
10 -15 6 0 9 -148 10 -390 0 -214 3 -410 6 -434 6 -39 10 -45 33 -48 l26 -3 3
-212 2 -213 254 0 254 0 6 34 6 33 338 2 c185 1 363 4 395 7 54 6 57 8 57 34
l0 27 358 7 c448 8 426 6 430 38 l3 25 277 6 c152 4 366 7 475 7 l197 0 0 29
c0 27 2 28 63 34 34 4 210 7 390 8 l328 0 6 30 c3 16 9 31 12 34 4 2 66 5 139
6 135 2 147 6 154 44 2 14 12 21 37 23 21 2 31 0 26 -7 -3 -7 2 -11 14 -11 12
0 21 -5 21 -12 0 -9 3 -9 12 0 16 16 29 15 22 -2 -4 -10 5 -13 36 -13 31 0 40
3 38 16 -2 12 -19 17 -68 22 -41 3 1 6 113 7 l177 2 0 35 c0 34 2 35 36 35 35
0 36 -1 32 -35 l-4 -35 241 0 c133 0 364 3 513 7 l272 6 0 29 0 28 118 1 c64
1 225 4 357 8 l240 6 3 33 3 32 435 0 c421 0 434 1 434 19 0 53 -21 51 430 51
229 0 438 3 464 6 43 6 46 9 46 35 l0 29 218 0 c121 0 267 3 325 7 l107 6 0
29 0 28 88 1 c48 1 112 2 142 3 30 1 221 2 424 4 356 2 368 3 363 21 -12 46
-15 46 470 49 302 2 462 7 470 14 7 6 13 19 13 30 0 11 5 16 10 13 6 -4 8 -14
5 -24 -3 -12 1 -17 15 -17 24 0 25 3 4 23 -13 14 -14 17 -2 24 8 4 143 9 300
10 163 1 292 6 300 11 10 8 9 9 -4 4 -10 -3 -20 -1 -23 4 -4 6 4 10 16 10 16
0 20 5 16 19 -5 19 4 20 282 23 757 7 671 3 671 36 0 23 4 27 28 28 15 0 177
4 360 9 l332 8 0 22 c0 13 8 27 18 31 9 4 126 10 260 12 l243 4 -4 31 -3 32
-77 3 -77 3 0 34 0 35 111 0 110 0 -3 -50 c-2 -27 -7 -52 -11 -56 -16 -16 -6
-26 11 -11 27 24 52 21 53 -5 1 -14 4 -9 8 12 l6 35 114 -2 c81 -1 116 -6 122
-15 6 -8 9 -9 9 -1 0 6 8 9 19 6 10 -3 22 0 25 6 5 8 140 11 442 11 l434 0 0
29 c0 25 4 29 38 35 20 3 182 6 360 6 l322 0 0 255 c0 219 -2 255 -15 256 -8
1 -21 2 -27 3 -23 2 -27 77 -27 509 l-1 427 -35 0 -35 0 -1 313 c-1 171 -4
350 -7 397 -7 82 -8 85 -33 88 l-26 3 -8 412 c-4 227 -7 420 -7 430 1 12 -7
17 -27 17 l-28 0 -6 218 c-4 119 -7 317 -7 440 l0 222 -29 0 c-27 0 -29 3 -35
53 -3 28 -6 201 -6 383 0 182 -3 352 -6 377 -6 40 -10 46 -33 49 l-26 3 -2
250 c-1 138 -5 319 -9 403 -6 150 -6 152 -29 152 -18 0 -24 7 -28 33 -3 17 -9
211 -13 430 l-7 397 -27 0 -27 0 -6 167 c-4 91 -7 255 -7 365 l0 198 -28 0
-29 0 -6 98 c-4 53 -7 264 -7 469 l0 372 -32 3 -33 3 -3 270 c-1 149 -3 358
-5 465 l-2 195 -27 3 c-23 3 -27 8 -32 50 -3 26 -8 203 -12 395 l-7 347 -28 0
-29 0 0 75 0 75 -182 -2 c-101 -1 -202 -3 -226 -5z m99 -439 c5 -3 9 -116 9
-252 0 -136 3 -345 7 -464 l6 -218 27 0 27 0 6 -202 c4 -112 7 -275 7 -364 l0
-161 30 5 c17 2 31 3 32 1 1 -2 4 -215 7 -474 l6 -470 25 0 c17 0 26 -7 31
-25 4 -14 7 -176 8 -361 1 -185 4 -384 8 -443 l6 -108 29 4 28 5 1 -211 c1
-116 4 -281 8 -366 l6 -155 26 -3 26 -3 6 -217 c4 -119 7 -315 7 -434 l0 -218
30 0 c30 0 30 0 31 -60 1 -33 3 -64 4 -70 1 -5 3 -190 4 -409 l1 -400 33 -3
32 -3 5 -356 c3 -247 9 -360 17 -370 6 -8 13 -25 16 -39 4 -25 4 -25 6 3 0 15
6 27 12 27 6 0 8 -9 4 -21 -4 -12 -3 -24 3 -28 6 -4 13 -163 17 -436 4 -236 9
-433 11 -437 3 -5 15 -8 28 -8 l23 0 6 -227 c4 -124 7 -318 7 -430 l0 -203 29
0 c25 0 29 -4 35 -38 3 -20 6 -166 6 -324 l0 -288 -42 -2 c-77 -4 -140 -5
-380 -7 l-238 -1 0 -28 0 -29 -107 -6 c-58 -4 -236 -7 -395 -7 l-288 0 -7 -32
-7 -33 -7 30 -7 30 -1 -27 c0 -16 -6 -28 -12 -28 -7 0 -9 10 -4 27 5 23 4 26
-7 15 -7 -7 -13 -20 -13 -30 0 -16 -29 -17 -370 -22 l-370 -5 -3 -27 c-2 -17
-9 -28 -18 -28 -11 0 -13 6 -9 19 3 11 1 22 -5 26 -6 4 -10 -4 -10 -19 0 -14
-4 -26 -10 -26 -5 0 -9 10 -7 22 2 20 -3 23 -35 26 -34 3 -37 1 -40 -25 l-3
-28 -330 -6 c-181 -3 -360 -7 -397 -8 l-68 -1 0 -30 0 -30 -152 -2 c-84 0
-162 -2 -173 -3 -11 -1 -122 -3 -247 -4 l-228 -1 0 -28 0 -29 -97 -6 c-54 -4
-281 -7 -505 -7 l-408 0 0 -35 0 -35 -330 0 c-213 0 -330 -4 -330 -10 0 -5
-13 -10 -30 -10 -23 0 -28 -4 -23 -16 5 -13 7 -13 14 -2 6 9 9 10 9 1 0 -7 7
-10 18 -7 13 4 12 3 -3 -8 -15 -10 -112 -14 -415 -19 -217 -4 -419 -7 -447 -8
-51 -1 -53 -2 -53 -29 l0 -29 -277 -6 c-153 -4 -365 -7 -470 -7 -106 0 -193
-3 -194 -7 -2 -24 -8 -46 -14 -51 -4 -4 -150 -9 -326 -10 l-319 -4 0 -34 0
-34 -400 0 -400 0 0 -35 c0 -34 -1 -35 -40 -35 -38 0 -40 2 -40 30 0 28 -2 29
-32 23 -22 -4 -29 -3 -24 5 5 9 -6 12 -38 12 -37 0 -46 -3 -46 -17 -1 -16 -2
-17 -13 -2 -11 15 -14 15 -27 0 -8 -8 -16 -19 -16 -23 -1 -5 -2 -12 -3 -18 -1
-6 -104 -10 -283 -11 -156 -1 -337 -4 -403 -8 l-120 -6 -3 -26 c-3 -26 -3 -26
-120 -33 -64 -4 -208 -7 -319 -7 l-201 0 -7 -70 c-7 -68 -7 -69 -36 -69 -26 0
-29 3 -29 34 0 19 -4 37 -9 40 -4 3 -105 3 -225 -1 l-216 -6 0 -46 c0 -33 -3
-42 -10 -31 -8 12 -10 8 -11 -15 l-2 -30 -4 28 c-4 25 -8 27 -54 27 l-49 0 0
35 0 35 -182 -2 -183 -3 -3 -32 -3 -33 -435 0 -434 0 -6 -30 c-7 -34 -16 -37
-38 -14 -15 14 -16 14 -16 -5 0 -21 -4 -21 -223 -21 -123 0 -272 -3 -330 -6
-105 -7 -106 -7 -109 -33 l-3 -26 -465 -7 c-292 -5 -472 -12 -483 -18 -10 -6
-28 -8 -40 -5 -17 5 -19 4 -7 -4 8 -6 24 -11 35 -12 16 -1 15 -2 -5 -8 -15 -4
-28 -3 -32 3 -5 7 -8 5 -8 -5 0 -13 -19 -17 -112 -22 -62 -4 -176 -7 -254 -7
l-141 0 -7 61 c-3 34 -6 118 -6 185 l0 124 -28 0 -29 0 -6 158 c-4 86 -7 264
-7 395 l0 237 -29 0 c-17 0 -31 6 -35 16 -3 9 -6 215 -6 458 0 244 -3 465 -7
492 l-7 49 -7 -35 -6 -35 -2 33 c-1 25 -5 32 -21 32 -20 0 -20 7 -20 304 0
166 -3 331 -6 365 -7 59 -8 61 -35 61 l-29 0 -1 235 c-1 129 -3 240 -4 245 -1
6 -3 96 -4 200 l-1 190 -30 0 c-26 0 -30 4 -30 28 0 123 -12 680 -15 689 -2 6
-16 13 -31 15 -18 2 -28 10 -30 23 -7 47 -7 102 0 113 4 7 4 42 1 77 l-7 65
-34 0 c-33 0 -34 1 -34 40 0 25 5 40 13 41 6 1 19 2 27 3 9 0 15 11 14 28 0
15 4 25 8 22 4 -3 8 49 8 115 l0 121 -35 0 c-33 0 -35 2 -35 35 0 33 2 35 35
35 33 0 35 2 35 35 0 24 -5 35 -15 35 -8 0 -15 5 -15 10 0 6 -6 10 -14 10 -9
0 -13 9 -11 25 1 14 -1 25 -6 25 -4 0 -9 197 -12 438 -2 240 -7 446 -10 457
-3 11 -6 26 -6 33 -1 6 -12 12 -24 12 l-24 0 -7 437 c-8 453 -8 460 -48 447
-16 -5 -18 5 -20 103 0 59 -2 117 -3 128 -1 11 -3 156 -4 323 l-1 302 -29 0
c-27 0 -29 3 -34 53 -4 28 -7 206 -7 395 -1 254 -5 342 -13 344 -7 0 -16 2
-22 3 -5 2 -16 3 -22 4 -10 1 -13 51 -13 214 l0 214 218 6 c119 4 265 7 325 7
l107 0 0 30 0 30 118 1 c64 1 144 2 177 3 33 1 192 3 353 4 l292 2 0 29 c0 26
3 29 46 35 26 3 190 6 365 6 l319 0 0 35 0 35 435 0 435 0 0 35 0 34 317 0
c368 1 542 9 544 25 1 6 2 18 2 27 0 14 23 17 165 22 91 4 223 7 294 7 l128 0
0 35 c0 33 2 35 35 35 33 0 35 2 35 35 l0 36 63 -2 c34 -1 56 -4 50 -6 -7 -3
-13 -15 -13 -28 0 -24 29 -35 91 -35 27 0 29 3 29 36 0 34 1 35 33 32 28 -3
32 -7 35 -35 l3 -33 400 0 399 0 0 35 0 35 428 2 427 3 3 33 3 32 265 1 c145
1 269 3 274 4 6 1 69 3 140 4 l130 1 0 25 c0 34 20 32 21 -2 l2 -28 4 27 c3
22 11 28 36 32 46 7 406 16 655 16 l212 0 0 28 0 29 113 6 c61 4 228 7 370 7
l257 0 0 31 c0 29 2 30 30 24 19 -4 30 -3 30 4 0 8 109 11 360 11 l360 0 0 35
0 35 438 1 c240 1 471 4 512 8 70 6 75 8 72 28 -2 14 3 23 15 27 10 2 172 8
361 12 l342 7 0 27 0 27 167 6 c91 4 305 7 475 7 l308 0 0 29 c0 26 3 29 46
35 26 3 217 6 425 6 398 0 393 -1 394 45 0 19 9 20 325 26 179 3 342 7 363 8
34 1 37 3 37 31 l0 30 293 2 c307 3 404 1 418 -8z m-11174 -530 c-3 -3 -12 -4
-19 -1 -8 3 -5 6 6 6 11 1 17 -2 13 -5z m1381 -73 c-15 -21 -28 -19 -28 5 0 7
8 14 18 16 24 6 26 2 10 -21z m-4928 -4712 c0 -5 5 -7 10 -4 6 4 10 -13 10
-44 l0 -51 -35 0 c-32 0 -35 2 -35 30 0 18 6 33 15 36 11 5 13 10 5 19 -5 6
-7 15 -3 18 10 11 33 8 33 -4z m140 -283 c0 -3 -4 -8 -10 -11 -5 -3 -10 -1
-10 4 0 6 5 11 10 11 6 0 10 -2 10 -4z m-190 -76 c0 -28 -3 -30 -35 -30 -30 0
-35 3 -35 23 0 31 7 37 42 37 24 0 28 -4 28 -30z m15685 -868 c-3 -3 -11 0
-18 7 -9 10 -8 11 6 5 10 -3 15 -9 12 -12z m-1670 -3162 c3 -5 1 -10 -4 -10
-6 0 -11 5 -11 10 0 6 2 10 4 10 3 0 8 -4 11 -10z m-7722 -327 c-7 -2 -19 -2
-25 0 -7 3 -2 5 12 5 14 0 19 -2 13 -5z m-1336 -138 c0 -8 -4 -12 -9 -9 -5 3
-6 10 -3 15 9 13 12 11 12 -6z m43 -141 c0 -35 -15 -43 -54 -28 -25 9 -20 53
7 63 33 13 47 3 47 -35z m-775 -14 c-3 -6 1 -13 9 -16 9 -3 16 -12 16 -20 0
-8 7 -14 15 -14 16 0 16 -20 0 -32 -5 -4 -19 -8 -29 -8 -15 0 -17 3 -8 12 9 9
9 15 -1 27 -10 12 -9 13 2 7 9 -6 12 -5 9 5 -3 8 -11 13 -17 12 -12 -3 -15 19
-4 30 10 10 15 8 8 -3z m95 -121 c0 -13 -4 -18 -12 -13 -9 5 -9 2 1 -9 12 -15
11 -17 -3 -17 -22 0 -31 27 -16 45 17 21 30 19 30 -6z m30 -10 c0 -17 -4 -28
-10 -24 -11 7 -9 55 2 55 4 0 8 -14 8 -31z m51 -2 c13 4 19 0 19 -10 0 -11 -9
-15 -29 -15 -26 1 -29 4 -26 27 5 36 7 39 12 15 3 -16 9 -20 24 -17z m16 17
c-3 -3 -12 -4 -19 -1 -8 3 -5 6 6 6 11 1 17 -2 13 -5z"/>
<path d="M11180 11630 c0 -5 12 -10 28 -9 24 0 25 1 7 9 -27 12 -35 12 -35 0z"/>
<path d="M11188 11603 c7 -3 16 -2 19 1 4 3 -2 6 -13 5 -11 0 -14 -3 -6 -6z"/>
<path d="M16122 11503 c-25 -3 -32 -8 -28 -20 15 -38 -9 -43 -195 -43 l-178 0
-3 -32 -3 -33 -99 -3 c-105 -3 -116 1 -116 46 0 19 -5 22 -35 22 -32 0 -35 -2
-35 -30 0 -28 -3 -30 -35 -30 -32 0 -35 2 -35 30 0 28 -3 30 -35 30 -33 0 -35
-2 -35 -35 0 -33 -2 -35 -35 -35 l-35 0 0 -104 0 -105 33 -3 c29 -3 32 -6 35
-41 l3 -39 137 2 c75 1 156 2 180 1 l42 -1 0 -40 c0 -39 1 -40 35 -40 32 0 35
-2 35 -30 l0 -30 75 0 75 0 0 -39 c0 -37 1 -38 33 -37 30 1 32 -2 35 -37 3
-35 5 -37 38 -37 32 0 34 -2 34 -35 0 -34 1 -35 41 -35 41 0 41 0 37 35 -4 35
-4 35 34 35 37 0 38 -1 38 -34 0 -33 -2 -35 -37 -38 -37 -3 -38 -4 -40 -43 -1
-22 1 -70 4 -107 l6 -68 33 0 34 0 0 -70 0 -70 104 0 104 0 7 73 c3 39 4 146
1 237 -2 91 -5 204 -5 253 l-1 87 -35 0 -34 0 -3 73 c-3 70 -4 72 -30 75 -22
3 -27 9 -30 42 -2 25 0 36 7 31 11 -9 49 1 43 11 -2 3 6 16 17 29 11 12 16 20
10 17 -6 -4 -10 22 -10 70 l0 77 -37 3 c-36 3 -38 5 -38 38 0 33 -1 34 -37 32
-21 0 -53 -3 -71 -5z m0 -45 c-9 -9 -12 -7 -12 12 0 19 3 21 12 12 9 -9 9 -15
0 -24z m-40 -123 l-4 -36 -67 3 -66 3 -3 33 -3 32 73 0 74 0 -4 -35z m92 1
c-3 -15 -8 -25 -11 -23 -2 3 -1 17 3 31 3 15 8 25 11 23 2 -3 1 -17 -3 -31z
m46 11 c0 -7 -4 -6 -10 3 -8 12 -10 9 -10 -12 0 -16 -4 -28 -10 -28 -12 0 -12
2 0 35 10 25 30 27 30 2z m-3 -39 c-3 -8 -6 -5 -6 6 -1 11 2 17 5 13 3 -3 4
-12 1 -19z m-277 -45 c0 -32 -1 -33 -41 -33 -33 0 -40 3 -35 16 3 9 6 24 6 35
0 16 6 19 35 17 32 -2 35 -4 35 -35z m-110 -43 c15 0 17 -36 3 -49 -23 -21
-37 1 -28 46 5 22 10 31 12 21 3 -10 8 -18 13 -18z m-261 -34 c-1 -23 -3 -25
-6 -8 -5 24 -19 29 -26 10 -3 -10 -7 -10 -17 -1 -17 16 -5 31 25 31 22 0 25
-5 24 -32z m441 -286 c0 -28 -3 -30 -35 -30 -32 0 -35 2 -35 30 0 28 3 30 35
30 32 0 35 -2 35 -30z m245 3 c-5 -27 -5 -27 6 -5 17 32 39 28 39 -7 0 -26 -3
-30 -27 -28 -24 2 -28 7 -31 35 -2 18 1 32 8 32 6 0 8 -11 5 -27z"/>
<path d="M14474 11358 c-5 -7 -3 -8 5 -3 9 5 9 1 -1 -14 -7 -12 -20 -21 -30
-21 -9 0 -18 -4 -20 -10 -2 -6 -126 -10 -323 -12 -176 -1 -357 -3 -402 -6
l-83 -4 0 -28 c0 -27 -2 -28 -70 -35 l-70 -7 0 -103 0 -102 70 -7 c69 -7 70
-8 70 -36 l0 -29 73 -3 72 -3 3 -142 3 -143 28 0 c27 0 29 -3 35 -52 3 -29 6
-194 6 -365 l0 -313 35 0 34 0 1 -427 c0 -236 5 -457 10 -492 5 -35 8 -69 7
-74 -1 -6 9 -11 23 -11 l25 -1 8 -390 c4 -214 9 -396 12 -402 2 -7 16 -13 30
-13 l25 0 0 -105 0 -105 -29 0 c-27 0 -30 -3 -33 -37 -3 -36 -5 -38 -40 -41
-36 -3 -38 -5 -38 -36 l0 -33 -70 -7 -70 -7 0 -99 c0 -76 3 -99 14 -103 21 -8
596 -9 736 -1 116 7 120 8 120 29 0 13 6 25 13 27 6 3 71 6 142 7 72 1 175 4
230 7 55 2 134 4 176 4 l76 0 6 47 c3 27 3 89 0 140 -6 91 -6 91 -34 97 l-29
6 -1 217 c-1 120 -2 234 -4 253 -2 19 -3 131 -4 248 l-1 212 -30 0 c-26 0 -30
4 -31 28 -1 15 -5 212 -8 437 l-6 410 -30 0 -30 0 -3 331 -2 330 -29 -4 c-26
-3 -29 -1 -34 30 -4 18 -7 224 -8 458 -2 234 -4 446 -7 473 l-4 47 -253 0
c-181 0 -256 -3 -261 -12z"/>
<path d="M6810 11351 c0 -6 5 -13 10 -16 6 -3 10 1 10 9 0 9 -4 16 -10 16 -5
0 -10 -4 -10 -9z"/>
<path d="M12687 11203 c-4 -3 -7 -15 -7 -25 0 -10 -1 -19 -2 -20 -2 -1 -181
-4 -398 -7 -386 -6 -395 -6 -396 -26 -1 -11 -2 -26 -3 -32 -1 -10 -38 -13
-146 -13 l-146 0 3 -107 3 -108 65 -5 c65 -5 65 -5 68 -37 l3 -33 74 0 74 0 3
-37 c3 -33 7 -39 33 -43 l30 -5 3 -173 2 -172 -30 0 c-21 0 -30 -5 -31 -17 -1
-10 -2 -25 -3 -33 -2 -8 -3 -34 -4 -57 -2 -42 -3 -43 -37 -43 -34 0 -35 -1
-35 -39 0 -30 -4 -40 -20 -44 -11 -3 -20 0 -20 5 0 7 -4 7 -13 0 -7 -6 -14
-36 -15 -68 -3 -69 -6 -74 -42 -74 -27 0 -28 -1 -35 -70 l-7 -70 -34 0 -34 0
0 -70 0 -70 -35 0 c-34 0 -35 -1 -35 -39 0 -22 -6 -44 -15 -51 -10 -9 -15 -9
-15 -1 0 6 -4 11 -10 11 -5 0 -7 -7 -4 -15 5 -11 2 -13 -10 -9 -9 4 -16 3 -15
-2 1 -5 1 -33 0 -61 l-1 -53 -34 0 -34 0 -7 -69 c-7 -69 -7 -70 -38 -73 l-32
-3 -3 -72 -3 -73 -34 0 -35 0 0 -109 0 -110 33 -3 c29 -3 32 -6 34 -38 13
-183 12 -180 43 -180 27 0 28 -2 35 -69 7 -69 7 -70 38 -73 l32 -3 3 -72 3
-73 34 0 35 0 0 -110 0 -110 35 0 35 0 0 -70 0 -70 34 0 34 0 7 -75 c7 -74 8
-75 35 -75 27 0 29 -2 35 -62 3 -35 5 -115 3 -178 l-3 -115 -37 -3 c-36 -3
-38 -5 -38 -38 0 -32 -2 -34 -35 -34 l-36 0 3 -72 3 -73 33 -3 c28 -3 32 -7
32 -32 0 -26 3 -28 48 -32 26 -2 125 -2 220 0 l172 5 0 27 c0 28 1 28 73 34
39 4 218 7 397 9 l325 2 3 26 c3 24 8 27 55 33 29 3 125 6 215 6 l162 0 0 35
c0 33 2 35 35 35 34 0 35 1 35 40 0 38 -2 40 -30 40 -27 0 -30 3 -30 29 0 17
-4 33 -10 36 -5 3 -10 21 -11 38 0 29 -1 30 -9 10 -5 -13 -17 -23 -27 -22 -16
0 -16 1 2 9 18 8 18 9 2 9 -10 1 -20 8 -23 16 -4 10 -20 15 -45 15 -38 0 -39
1 -39 35 0 33 -2 35 -35 35 -34 0 -35 1 -35 40 0 39 -1 40 -35 40 -19 0 -34 3
-34 8 1 4 1 35 0 70 l-1 62 -35 0 -35 0 0 74 0 75 -32 3 c-28 3 -33 7 -35 33
-1 17 -5 63 -8 103 l-7 72 -34 0 -34 0 0 70 0 70 -35 0 -35 0 0 75 0 75 -35 0
-35 0 0 70 0 70 -35 0 c-34 0 -35 1 -35 40 0 39 -1 40 -34 40 -33 0 -33 1 -40
53 -3 28 -6 75 -6 104 0 51 0 52 -32 55 l-33 3 -3 73 -3 72 -34 0 -34 0 -3 68
-3 67 -32 3 c-32 3 -33 4 -35 55 0 29 -2 57 -3 62 -2 6 -3 16 -4 23 0 6 -14
12 -30 12 -28 0 -28 1 -37 73 -9 71 -9 72 -39 72 l-30 0 -3 72 -3 72 -32 3
-32 3 -3 152 c-2 129 0 153 14 168 9 9 19 13 23 9 3 -4 1 -9 -6 -11 -7 -2 -9
-11 -6 -19 4 -12 7 -12 18 3 9 12 10 23 4 35 -7 14 -6 18 5 18 10 0 16 13 18
38 3 33 6 37 34 40 31 3 32 5 39 65 7 65 15 77 53 77 19 0 22 5 22 35 0 32 2
35 30 35 17 0 31 6 31 13 1 6 2 23 3 37 1 21 6 25 39 28 35 3 37 5 37 38 0 32
2 34 35 34 33 0 35 2 35 34 0 33 2 35 38 38 35 3 37 5 34 36 -3 31 -2 32 37
32 40 0 41 1 41 35 l0 34 73 3 72 3 3 32 c3 28 7 32 35 35 l32 3 3 107 3 106
-76 7 c-70 7 -75 9 -75 31 0 20 -5 24 -28 24 -16 0 -32 -3 -35 -7z"/>
<path d="M10355 11001 c-66 -6 -70 -7 -70 -31 l0 -25 -370 -6 c-203 -3 -382
-7 -397 -8 -24 -1 -28 -5 -28 -30 0 -32 -23 -47 -54 -35 -14 5 -16 -6 -16
-104 l0 -111 79 -7 c77 -6 79 -7 75 -31 -3 -16 0 -23 8 -22 34 7 57 -12 60
-49 3 -34 6 -37 33 -37 l30 -1 6 -394 c3 -217 7 -397 8 -400 1 -3 8 4 16 14
14 18 15 19 15 2 0 -12 5 -16 15 -12 12 4 15 -36 18 -292 3 -163 8 -314 12
-334 8 -42 24 -51 26 -15 1 20 2 20 6 2 3 -11 9 -24 13 -30 4 -5 11 -234 15
-507 l8 -498 27 0 27 0 6 -172 c10 -258 9 -320 -8 -342 -8 -11 -15 -14 -15 -8
0 17 -27 15 -34 -3 -3 -9 0 -15 9 -15 8 0 15 -6 15 -14 0 -8 6 -17 13 -19 9
-4 9 -6 -1 -6 -7 -1 -15 6 -18 14 -4 8 -11 15 -16 15 -6 0 -8 -7 -4 -15 4 -12
-4 -15 -39 -15 -45 0 -45 0 -45 -35 0 -33 -2 -35 -35 -35 l-35 0 0 -110 0
-110 255 0 c248 0 255 1 255 20 0 11 6 20 13 20 9 0 9 2 -1 9 -11 7 -11 9 1
14 8 3 210 6 449 7 238 1 459 4 491 7 55 5 57 7 57 34 l0 29 68 1 c37 0 85 3
107 7 47 8 51 22 40 139 l-7 72 -66 3 -67 3 -3 32 c-3 31 -4 31 -73 38 l-69 7
0 67 c0 36 -3 117 -7 179 l-6 112 -27 0 -28 0 -7 440 -8 440 -26 1 -26 1 25 8
c17 5 19 8 8 9 -10 1 -18 6 -18 12 0 5 -4 8 -9 5 -4 -3 -9 29 -10 71 -1 42 -4
80 -6 84 -3 3 -5 153 -5 333 l-1 326 -28 0 c-21 0 -30 6 -35 23 -3 12 -6 208
-6 435 l0 412 -36 0 -35 0 3 68 3 67 68 9 67 9 0 34 c0 32 1 33 39 33 39 0 40
1 43 38 3 32 7 37 31 40 26 3 27 5 27 66 0 58 -2 64 -22 70 -28 7 -677 5 -773
-3z m-725 -385 c0 -3 -4 -8 -10 -11 -5 -3 -10 -1 -10 4 0 6 5 11 10 11 6 0 10
-2 10 -4z"/>
<path d="M7680 10755 l0 -35 -362 -2 -363 -3 -3 -32 c-3 -28 -7 -32 -35 -35
l-32 -3 -3 -110 c-2 -60 0 -143 3 -182 7 -72 7 -73 36 -73 28 0 29 -2 29 -49
0 -26 3 -76 6 -110 7 -58 8 -61 34 -61 25 0 28 -4 34 -46 3 -26 6 -75 6 -109
l0 -62 31 3 c16 2 28 0 24 -5 -3 -5 -1 -11 4 -13 5 -1 11 -56 12 -120 2 -65 7
-118 11 -118 4 0 5 -7 2 -15 -5 -11 1 -15 25 -15 l31 0 0 -57 c0 -32 3 -82 6
-110 6 -49 9 -53 34 -53 25 0 28 -4 34 -52 3 -29 6 -77 6 -105 0 -40 4 -53 15
-54 8 -1 20 -3 25 -4 6 -1 15 -3 20 -4 6 0 10 -43 10 -106 l0 -105 35 0 35 0
0 -110 0 -110 35 0 35 0 0 -92 c0 -51 3 -116 6 -145 6 -49 8 -52 38 -55 l31
-3 -1 -97 c0 -54 -3 -101 -7 -104 -3 -3 -132 -9 -285 -12 l-280 -5 -6 -51 c-3
-28 -6 -75 -6 -103 0 -52 0 -53 -30 -53 -28 0 -30 -2 -30 -40 0 -39 1 -40 35
-40 32 0 35 -2 35 -30 l0 -30 71 0 c47 0 75 5 85 14 10 11 11 15 1 19 -42 15
38 22 284 25 l279 3 0 -70 0 -71 35 0 35 0 0 -57 c0 -32 3 -82 6 -110 6 -50 8
-53 35 -53 28 0 29 -1 30 -55 4 -153 4 -153 -33 -157 -30 -3 -33 -6 -36 -40
-3 -36 -5 -38 -38 -38 -32 0 -34 -2 -34 -35 0 -33 -2 -35 -35 -35 l-35 0 0
-69 0 -69 78 -8 c42 -4 228 -4 412 -1 184 4 392 7 463 7 l127 0 0 28 0 29 113
6 c61 4 207 7 323 7 l211 0 7 53 c3 28 6 78 6 110 l0 57 -34 0 c-32 0 -35 3
-38 33 l-3 32 -70 5 -70 5 -9 68 c-9 65 -10 67 -37 67 -28 0 -28 0 -31 73 l-3
72 -32 3 c-31 3 -33 6 -34 43 -1 21 -3 53 -4 69 -1 17 -3 48 -4 70 -1 33 -4
40 -22 40 -19 0 -19 1 -5 16 9 8 16 18 16 22 0 3 -5 1 -12 -6 -8 -8 -16 -6
-30 10 -15 18 -18 39 -18 130 0 64 -4 109 -10 109 -5 1 -14 3 -20 4 -5 1 -17
3 -25 4 -12 1 -15 20 -15 106 l0 105 -35 0 -35 0 0 49 c0 26 -3 76 -6 110 -7
58 -8 61 -34 61 -25 0 -28 4 -34 53 -3 28 -6 78 -6 109 0 57 0 57 -32 60 l-33
3 -3 103 -3 102 -34 0 -35 0 0 110 0 110 -34 0 -35 0 -4 108 c-3 59 -7 118 -9
132 -5 26 -38 42 -38 18 0 -7 -6 -4 -13 7 -6 11 -14 52 -17 90 -4 62 -7 70
-25 70 -41 0 -45 12 -45 121 l0 104 -35 0 -35 0 0 110 0 110 -35 0 -35 0 0 58
c0 31 -3 80 -6 109 -6 46 -9 52 -32 55 -29 3 -31 10 -39 126 -5 81 -6 82 -33
82 -25 0 -28 3 -34 53 -3 28 -6 78 -6 110 l0 57 -180 0 -180 0 0 -35z m770
-1255 c0 -5 -4 -10 -10 -10 -5 0 -10 5 -10 10 0 6 5 10 10 10 6 0 10 -4 10
-10z"/>
<path d="M10890 10665 c-11 -13 -10 -14 4 -9 9 3 16 10 16 15 0 13 -6 11 -20
-6z"/>
<path d="M5130 10561 c0 -5 -11 -8 -25 -6 -20 2 -25 -2 -25 -20 0 -19 -7 -23
-52 -29 -29 -3 -178 -6 -330 -6 l-278 0 0 -35 c0 -33 -2 -35 -35 -35 l-35 0 0
-110 0 -110 35 0 c33 0 35 -2 35 -35 l0 -35 145 0 145 0 0 -35 0 -34 72 -3
c72 -3 73 -3 78 -33 5 -29 8 -30 73 -39 l67 -9 0 -34 c0 -31 2 -33 35 -33 33
0 35 -2 35 -35 0 -33 2 -35 34 -35 l33 0 7 -62 c8 -66 16 -78 54 -78 21 0 22
-4 22 -75 l0 -75 35 0 c33 0 35 -2 35 -35 0 -33 2 -35 35 -35 33 0 35 -2 35
-35 0 -34 1 -35 40 -35 38 0 40 2 40 29 0 26 4 30 33 33 l32 3 -3 469 c-1 259
-5 472 -7 474 -2 3 -15 5 -27 6 -17 1 -24 8 -25 26 -2 14 -6 44 -9 68 l-6 42
-149 0 c-83 0 -149 -4 -149 -9z m-5 -31 c-3 -5 -12 -10 -18 -10 -7 0 -6 4 3
10 19 12 23 12 15 0z"/>
<path d="M3483 10423 c-7 -2 -13 -17 -13 -33 l0 -28 -357 -6 c-446 -6 -417 -4
-423 -41 -4 -26 -10 -30 -43 -33 l-37 -3 0 -75 0 -74 35 0 c32 0 35 -2 35 -30
0 -30 1 -30 53 -30 80 0 97 -8 97 -41 0 -26 3 -29 35 -29 l35 0 0 -75 0 -75
35 0 35 0 0 -389 c0 -433 3 -481 31 -481 14 0 19 -8 20 -27 0 -25 1 -26 9 -8
5 12 9 -112 9 -301 1 -176 4 -369 8 -427 l6 -107 29 0 28 0 2 -147 c0 -82 2
-157 3 -168 1 -11 3 -125 4 -252 l1 -233 30 0 30 0 2 -107 c6 -259 6 -253 -33
-253 -26 0 -29 -3 -29 -35 l0 -35 -75 0 -75 0 0 -40 c0 -39 -1 -40 -35 -40
l-35 0 0 -70 0 -70 35 0 c33 0 35 -2 35 -35 l0 -35 273 0 c149 0 296 3 325 6
49 6 52 8 52 35 l0 29 303 0 c291 1 539 7 565 15 6 3 12 16 12 30 0 16 6 25
16 25 8 0 12 -4 9 -10 -3 -5 -2 -10 4 -10 5 0 12 4 15 9 3 4 42 12 86 15 l80
7 0 110 c0 60 -3 108 -7 108 -5 -1 -20 -1 -35 0 -24 1 -28 5 -28 31 0 30 0 30
-57 30 -32 0 -82 3 -110 6 l-53 7 0 68 0 69 -35 0 -35 0 0 163 c0 90 -3 239
-7 330 -6 160 -7 167 -27 168 -12 0 -15 3 -8 6 6 2 12 11 12 19 0 8 -6 11 -15
8 -8 -3 -17 0 -20 7 -3 8 -8 228 -13 489 l-7 475 -27 3 c-16 2 -29 4 -30 5 -1
1 -4 193 -7 427 l-6 425 -32 3 -33 3 -2 362 -3 362 -315 2 c-173 1 -321 -1
-327 -4z"/>
<path d="M15018 10413 c6 -2 18 -2 25 0 6 3 1 5 -13 5 -14 0 -19 -2 -12 -5z"/>
<path d="M15035 10390 c-3 -5 -1 -10 4 -10 6 0 11 5 11 10 0 6 -2 10 -4 10 -3
0 -8 -4 -11 -10z"/>
<path d="M15720 10281 c0 -49 -4 -69 -12 -68 -60 2 -58 6 -58 -112 l0 -110
-32 -3 c-18 -2 -34 -9 -34 -15 -1 -7 -2 -38 -3 -68 l-1 -55 -35 0 c-28 0 -35
-4 -36 -20 -1 -11 -2 -26 -3 -32 0 -7 -18 -14 -38 -16 -36 -3 -38 -5 -38 -38
0 -32 -2 -34 -35 -34 l-35 0 0 -150 0 -150 41 0 c32 0 40 -3 38 -17 -3 -38 2
-42 71 -49 l70 -7 0 -33 c0 -32 2 -34 35 -34 34 0 35 -1 35 -40 0 -22 4 -40 9
-40 5 0 12 -8 14 -17 4 -17 5 -17 6 0 1 10 9 17 21 17 17 0 19 -8 22 -67 l3
-68 33 -3 c29 -3 32 -6 33 -40 4 -103 1 -97 39 -102 31 -4 35 -9 38 -37 l3
-33 65 0 c43 0 66 4 69 13 5 14 14 84 15 110 0 12 8 17 30 17 28 0 30 3 30 35
0 30 -3 35 -24 35 -14 0 -28 4 -31 10 -10 16 -14 163 -15 488 l0 302 -35 0
-35 0 0 250 0 250 -110 0 -110 0 0 -69z"/>
<path d="M6740 9705 l0 -145 -35 0 -35 0 -2 -157 c0 -87 -2 -167 -3 -178 -1
-11 -3 -37 -4 -57 -1 -35 -3 -38 -29 -38 l-29 0 -6 -112 c-4 -62 -7 -147 -7
-189 l0 -75 -27 0 c-34 1 -34 1 -40 -206 l-4 -148 -35 0 -34 0 -1 -190 c-1
-104 -3 -194 -4 -200 -1 -5 -3 -19 -4 -30 -1 -15 -8 -20 -29 -20 l-28 0 -2
-107 c-1 -60 -5 -141 -8 -180 -6 -71 -7 -73 -34 -73 -25 0 -28 -3 -34 -52 -3
-29 -6 -79 -6 -110 0 -57 0 -57 -32 -60 -35 -3 -35 -2 -37 -95 -1 -42 -2 -43
-36 -43 -33 0 -35 -2 -35 -34 l0 -33 -70 -7 c-69 -7 -70 -8 -70 -36 0 -26 -4
-29 -37 -32 -35 -3 -38 -6 -41 -35 -3 -30 -6 -33 -38 -33 l-34 0 0 -75 0 -75
75 0 75 0 0 -35 c0 -33 2 -35 34 -35 19 0 37 4 40 8 7 12 66 13 66 1 0 -5 16
-9 35 -9 33 0 35 2 35 35 l0 35 330 0 330 0 0 35 c0 33 2 35 35 35 l35 0 0
110 0 110 -75 0 -75 0 0 34 0 33 -69 7 -69 7 -7 70 c-7 71 -7 71 -35 67 -27
-4 -28 -2 -32 42 -1 25 -1 76 0 113 4 67 4 67 33 67 28 0 29 1 30 53 1 28 4
124 8 212 l6 160 26 3 c24 3 27 8 33 55 3 29 6 109 6 179 l0 127 33 3 32 3 3
178 c3 188 2 184 50 178 19 -3 20 8 26 229 3 113 6 206 6 206 0 1 8 1 18 1 9
0 23 1 30 2 9 1 12 45 12 184 0 121 -4 177 -10 167 -6 -10 -10 -11 -10 -2 0 6
-3 11 -7 11 -41 -7 -43 -2 -43 112 0 99 -2 110 -17 108 -46 -4 -53 0 -53 36 0
33 -2 35 -35 35 l-35 0 0 -145z m-597 -2842 c-7 -2 -21 -2 -30 0 -10 3 -4 5
12 5 17 0 24 -2 18 -5z m5 -20 c-10 -2 -26 -2 -35 0 -10 3 -2 5 17 5 19 0 27
-2 18 -5z"/>
<path d="M4850 9341 l0 -70 -32 -3 c-29 -3 -33 -7 -34 -33 0 -16 -1 -65 -2
-107 l-2 -78 -35 0 c-33 0 -35 -2 -36 -35 -3 -57 -4 -60 -14 -67 -6 -5 -5 -8
2 -8 27 0 -1 -29 -30 -32 -28 -3 -32 -7 -35 -34 -3 -31 -5 -32 -65 -39 -34 -3
-65 -12 -69 -18 -9 -15 -10 -212 -2 -284 l7 -52 68 -7 69 -7 0 -33 c0 -32 2
-34 34 -34 32 0 35 -3 38 -32 3 -29 7 -33 36 -36 29 -3 32 -6 32 -38 0 -32 2
-34 34 -34 l34 0 7 -75 c7 -74 7 -75 35 -75 27 0 28 -2 35 -70 l7 -70 33 0
c31 0 34 -3 37 -32 3 -28 7 -33 33 -36 19 -3 33 2 42 14 7 10 13 13 13 7 0 -6
9 -13 19 -16 26 -7 32 11 38 116 l6 87 29 0 c28 0 29 2 26 38 -3 32 -6 37 -28
37 l-25 0 -6 160 c-4 88 -7 251 -8 363 l-1 202 -30 0 -30 0 0 81 c0 49 4 78
10 74 5 -3 3 10 -5 29 -11 25 -15 75 -15 176 l0 140 -110 0 -110 0 0 -69z
m257 -1413 c-3 -8 -6 -5 -6 6 -1 11 2 17 5 13 3 -3 4 -12 1 -19z"/>
<path d="M16375 8841 c-7 -69 -7 -70 -38 -73 l-32 -3 -3 -107 -3 -108 -34 0
-35 0 0 -75 0 -75 -34 0 -33 0 -7 -60 c-4 -33 -7 -63 -6 -67 0 -5 -14 -10 -32
-13 -28 -4 -33 -9 -36 -36 -3 -33 -15 -38 -107 -46 -26 -3 -30 -7 -33 -35 -3
-30 -6 -33 -38 -33 -32 0 -34 -2 -34 -35 0 -34 -1 -35 -40 -35 -39 0 -40 -1
-40 -34 l0 -34 -139 -7 -139 -7 -1 -104 -2 -104 31 0 c28 0 30 -3 30 -35 0
-39 29 -63 58 -48 9 4 197 10 417 13 l400 5 0 25 c0 30 25 37 138 39 l77 1 0
285 c-1 304 1 292 -46 286 -17 -2 -24 97 -24 320 l0 198 -32 3 c-29 3 -33 7
-36 36 l-3 32 -69 0 -68 0 -7 -69z"/>
<path d="M2207 8811 c-4 -17 -3 -21 5 -13 5 5 8 16 6 23 -3 8 -7 3 -11 -10z"/>
<path d="M13360 7629 c0 -5 5 -7 10 -4 6 3 10 8 10 11 0 2 -4 4 -10 4 -5 0
-10 -5 -10 -11z"/>
<path d="M16418 6953 c-47 -4 -48 -5 -48 -39 0 -31 -2 -34 -30 -34 -28 0 -30
-3 -30 -35 l0 -35 -87 -1 c-49 0 -98 -2 -110 -3 -20 -2 -23 2 -23 36 l0 38
-144 0 -145 0 -3 33 -3 32 -107 3 -108 3 0 -146 0 -145 70 0 70 0 0 -35 0 -35
110 0 110 0 0 -35 c0 -33 2 -35 35 -35 33 0 35 -2 35 -34 0 -35 19 -51 51 -44
8 2 15 -10 19 -32 5 -32 8 -35 43 -38 35 -3 37 -5 37 -37 0 -31 3 -34 33 -37
28 -3 32 -7 35 -35 2 -18 9 -34 15 -35 7 0 17 -2 22 -3 6 -2 16 -3 23 -4 8 -1
12 -22 12 -71 0 -38 3 -70 8 -70 4 0 13 -10 21 -22 13 -21 13 -22 -2 -9 -15
12 -17 11 -17 -7 0 -11 6 -20 13 -19 43 1 45 -2 52 -83 7 -80 7 -80 35 -80 25
0 29 -4 32 -32 l3 -33 106 -3 106 -3 5 53 c9 89 -4 682 -14 689 -6 4 -7 16 -3
28 5 17 2 21 -18 21 -24 0 -24 2 -30 113 -4 61 -7 145 -7 185 l0 72 -34 0
c-18 0 -46 2 -62 4 -16 1 -50 1 -76 -1z"/>
<path d="M2350 6928 c0 -19 2 -20 10 -8 13 19 13 30 0 30 -5 0 -10 -10 -10
-22z"/>
<path d="M14998 6868 c0 -7 -2 -17 -3 -23 -2 -5 -3 -16 -4 -22 -1 -9 -21 -13
-63 -14 -89 0 -143 -11 -144 -29 -1 -8 -2 -23 -3 -32 -1 -14 -10 -18 -36 -18
-33 0 -35 -2 -35 -35 0 -34 -1 -35 -40 -35 -39 0 -40 -1 -40 -35 0 -33 -2 -35
-35 -35 -35 0 -39 -5 -35 -47 1 -20 -3 -23 -34 -23 -34 0 -36 -2 -36 -35 0
-33 -2 -35 -34 -35 -33 0 -35 -2 -38 -37 -3 -34 -6 -38 -35 -41 -31 -3 -31 -4
-38 -73 -7 -67 -8 -69 -35 -69 -25 0 -28 -3 -34 -52 -3 -29 -6 -95 -6 -145 l0
-93 -35 0 -35 0 0 -169 c0 -92 3 -189 6 -215 6 -43 9 -46 35 -46 29 0 29 0 29
-62 0 -35 3 -87 6 -115 6 -50 9 -53 34 -53 27 0 28 -2 35 -70 7 -69 7 -70 36
-70 26 0 29 -3 29 -35 0 -34 1 -35 40 -35 l40 0 0 -69 0 -70 38 -3 c33 -3 37
-6 40 -34 3 -28 8 -33 40 -38 20 -3 49 -6 65 -6 24 0 27 -3 27 -35 0 -34 1
-35 40 -35 39 0 40 -1 40 -34 l0 -33 70 -7 c69 -7 70 -8 70 -35 0 -28 1 -29
75 -36 74 -7 75 -7 75 -34 0 -26 3 -29 53 -35 28 -3 78 -6 110 -6 l57 0 0 -35
0 -35 105 0 105 0 0 -35 0 -35 95 -1 c52 -1 101 -2 108 -3 6 0 13 -15 15 -32
3 -32 3 -32 78 -39 73 -7 74 -7 74 -35 0 -25 4 -29 33 -32 29 -3 32 -6 35 -40
3 -36 5 -38 38 -38 32 0 34 -2 34 -35 0 -33 2 -35 34 -35 l33 0 7 -61 c3 -34
6 -90 6 -124 0 -34 -3 -90 -6 -124 -7 -59 -8 -61 -35 -61 -24 0 -28 -4 -31
-32 -3 -29 -7 -34 -38 -38 -31 -4 -35 -9 -38 -37 -3 -30 -6 -33 -38 -33 -32 0
-34 -2 -34 -35 0 -34 -1 -35 -42 -37 -24 -1 -55 -1 -69 0 -24 2 -27 -2 -33
-51 -3 -28 -6 -94 -6 -144 l0 -93 174 0 c186 0 186 0 186 51 0 17 8 19 75 19
l75 0 0 34 0 34 69 7 c69 7 70 7 73 38 3 29 7 32 41 35 34 3 37 6 37 33 0 27
3 29 35 29 31 0 35 3 35 28 0 38 10 50 45 54 26 2 30 8 33 35 3 28 7 32 35 35
28 3 32 7 35 35 3 28 7 32 35 35 29 3 32 6 35 41 3 33 6 37 31 37 27 0 29 3
35 53 3 28 6 76 6 105 l0 52 35 0 34 0 3 113 3 112 32 3 31 3 2 180 1 179 -29
0 c-28 0 -30 3 -36 53 -3 28 -6 91 -6 140 l0 87 -35 0 -35 0 0 75 0 75 -35 0
c-33 0 -35 2 -35 34 0 33 -2 35 -37 38 -36 3 -38 5 -41 41 -3 34 -6 37 -33 37
-28 0 -31 4 -33 45 -1 16 -9 21 -38 23 -36 3 -38 5 -38 38 0 32 -2 34 -35 34
-33 0 -35 2 -35 35 0 34 -1 35 -40 35 -39 0 -40 1 -40 35 l0 35 -69 0 c-39 0
-73 5 -76 10 -4 6 -11 8 -16 5 -5 -4 -9 -1 -9 4 0 6 5 11 10 11 6 0 10 7 10
15 0 10 -10 15 -29 15 -17 0 -33 5 -36 10 -3 6 -37 10 -76 10 l-69 0 0 35 0
35 -110 0 -110 0 0 35 0 34 -72 3 c-67 3 -71 4 -75 28 -3 23 -18 40 -36 40 -5
0 -6 -4 -3 -8 3 -5 -1 -9 -9 -9 -8 0 -15 4 -15 7 0 4 -34 11 -75 15 -74 7 -75
7 -75 35 0 28 -1 28 -75 35 -74 7 -75 8 -75 36 0 20 -5 28 -17 28 -10 0 -42 3
-70 7 l-53 7 0 68 0 69 -35 0 -35 0 0 185 0 185 35 0 c33 0 35 2 35 35 0 33 2
35 35 35 33 0 35 2 35 35 0 34 1 35 40 35 39 0 40 1 40 35 0 33 2 35 35 35
l35 0 0 110 0 110 -180 0 c-137 0 -180 -3 -182 -12z m629 -1134 c-3 -3 -12 -4
-19 -1 -8 3 -5 6 6 6 11 1 17 -2 13 -5z m576 -191 c-7 -2 -19 -2 -25 0 -7 3
-2 5 12 5 14 0 19 -2 13 -5z"/>
<path d="M13533 6715 c-10 -11 -10 -14 2 -17 10 -2 12 -8 6 -17 -7 -11 -72
-14 -322 -18 -173 -3 -315 -7 -317 -8 -2 -2 -4 -50 -5 -107 l-2 -103 38 -3
c33 -3 37 -6 37 -32 0 -27 1 -28 70 -35 l70 -7 0 -34 c0 -32 2 -34 34 -34 33
0 33 -1 40 -52 8 -69 8 -248 0 -327 -7 -58 -8 -61 -34 -61 l-27 0 -6 -157 c-4
-87 -7 -200 -7 -250 l0 -93 -29 0 c-28 0 -28 -2 -35 -65 -4 -36 -4 -70 -1 -75
4 -6 19 -10 34 -10 l29 0 7 -139 7 -140 32 -3 c28 -3 31 -7 36 -43 5 -37 7
-40 35 -40 l30 0 3 118 c2 100 5 118 17 113 8 -3 15 -1 15 4 0 5 6 7 14 4 11
-4 14 1 12 20 -2 14 1 26 5 26 5 0 9 78 9 174 0 95 3 194 6 220 6 43 9 46 35
46 l29 0 0 113 c0 63 3 162 7 220 l6 107 27 0 c26 0 27 3 34 61 3 34 6 84 6
110 l0 49 35 0 34 0 3 68 3 67 33 3 c29 3 32 6 32 37 l0 33 70 7 70 7 0 34 c0
33 1 34 40 34 l40 0 0 70 0 70 -35 0 c-33 0 -35 2 -35 35 l0 35 -112 0 c-84
-1 -116 -4 -125 -15z m-248 -1606 c-4 -5 -12 -9 -18 -8 -9 0 -8 2 1 6 6 2 9
10 6 15 -4 7 -2 8 5 4 6 -4 9 -12 6 -17z"/>
<path d="M12030 6555 l0 -35 -110 0 -109 0 -3 -107 -3 -108 -32 -3 -33 -3 0
-133 c0 -73 -3 -154 -6 -179 -6 -40 -10 -46 -33 -49 l-26 -3 -8 -240 c-4 -132
-10 -246 -12 -252 -2 -7 -15 -13 -29 -13 -22 0 -24 -4 -29 -67 -5 -60 -5 -93
1 -140 1 -7 15 -13 31 -13 l28 0 9 -137 9 -138 30 -5 c30 -5 30 -6 33 -78 l3
-72 34 0 35 0 0 -109 c0 -106 1 -108 23 -108 46 -1 47 -2 47 -55 0 -29 3 -77
6 -105 6 -50 9 -53 34 -53 28 0 28 0 35 -87 9 -128 11 -136 39 -129 30 7 36
-7 36 -90 l0 -64 35 0 35 0 0 -110 0 -110 35 0 35 0 0 -52 c0 -29 3 -77 6
-105 6 -50 9 -53 35 -53 27 0 27 -1 35 -77 4 -43 7 -89 8 -103 1 -19 7 -26 31
-30 l30 -5 3 -108 3 -107 34 0 c34 0 35 -1 35 -40 l0 -40 290 0 290 0 1 158
c1 182 4 198 39 198 l25 0 5 174 c3 96 9 181 13 188 5 6 19 10 31 8 l23 -4 7
242 c4 133 4 297 0 364 l-7 122 -34 0 -33 0 0 110 0 110 -35 0 -34 0 -3 103
-3 102 -32 3 -32 3 -3 77 -3 77 -28 -3 c-34 -4 -35 -1 -44 123 -8 98 -9 100
-33 100 -28 0 -28 1 -37 128 -3 48 -9 77 -16 78 -7 1 -21 2 -32 3 -18 1 -20 9
-23 109 l-3 107 -34 0 -35 0 0 49 c0 26 -3 76 -6 110 -7 58 -8 61 -35 61 -30
0 -26 -15 -42 180 -2 19 -9 26 -32 30 -30 5 -30 6 -33 78 l-3 72 -34 0 -35 0
0 110 0 110 -35 0 c-33 0 -35 2 -35 35 l0 35 -145 0 -145 0 0 -35z m-316
-1591 c3 -8 2 -12 -4 -9 -6 3 -10 10 -10 16 0 14 7 11 14 -7z"/>
<path d="M11095 6498 c-2 -7 -5 -22 -7 -33 -3 -20 -11 -20 -323 -20 -176 0
-389 -1 -472 -3 l-153 -2 0 -28 0 -29 -107 -6 c-58 -4 -170 -7 -249 -7 l-142
0 -7 -70 c-4 -39 -4 -101 0 -139 l7 -69 69 -7 69 -7 0 -34 c0 -32 2 -34 35
-34 l35 0 0 -52 c0 -29 3 -77 6 -105 6 -50 9 -53 35 -53 27 0 27 -1 34 -74 7
-75 7 -75 39 -78 l31 -3 3 -107 3 -108 34 0 35 0 0 -74 c0 -41 5 -78 10 -81 6
-4 8 -15 5 -26 -5 -15 -1 -19 17 -20 13 -1 26 -1 31 0 4 0 7 -35 7 -79 l0 -80
34 0 c33 0 33 -1 40 -52 3 -29 6 -79 6 -110 0 -57 0 -57 33 -60 l32 -3 3 -102
3 -103 34 0 35 0 0 -75 0 -75 29 0 c17 0 32 -4 35 -8 2 -4 5 -46 6 -92 3 -112
5 -120 39 -120 27 0 29 -3 35 -52 3 -29 6 -79 6 -110 0 -57 0 -58 29 -58 34 0
37 -8 40 -115 1 -43 4 -82 7 -87 3 -4 18 -8 35 -8 l29 0 0 -75 0 -75 35 0 35
0 0 -57 c0 -32 3 -82 6 -110 6 -49 9 -53 34 -53 25 0 28 -4 34 -52 3 -29 6
-77 6 -105 l0 -53 35 0 35 0 0 -90 c0 -65 3 -90 13 -90 8 0 7 -3 -2 -9 -12 -8
-9 -11 11 -16 15 -4 32 -4 37 0 8 4 11 -20 11 -74 l0 -81 220 0 c169 0 220 3
221 13 1 6 2 19 3 27 1 16 39 27 99 29 l37 1 0 69 0 70 33 3 32 3 6 240 c4
132 7 246 8 253 0 6 14 12 29 12 l29 0 7 183 c4 100 11 183 16 185 5 2 6 10 3
18 -3 8 0 14 7 14 25 0 38 29 45 104 4 43 4 109 0 146 -7 68 -7 69 -38 72
l-32 3 -3 72 -3 72 -32 3 c-26 2 -32 7 -33 28 0 14 -1 62 -2 108 l-2 82 -35 0
-35 0 0 110 0 110 -35 0 -35 0 0 70 0 70 -35 0 -35 0 0 48 c0 26 -3 78 -7 115
-5 59 -9 68 -23 64 -10 -3 -24 -1 -31 4 -10 6 -6 9 14 9 16 0 26 4 23 9 -4 5
-1 11 6 13 8 3 6 7 -5 11 -11 4 -17 1 -17 -8 0 -8 -5 -15 -12 -15 -6 0 -8 3
-5 7 4 3 1 14 -7 22 -9 10 -16 43 -18 86 -2 54 -7 70 -18 71 -53 3 -50 -3 -50
109 l0 105 -35 0 -35 0 0 58 c0 31 -3 81 -6 110 -6 49 -9 52 -35 52 -27 0 -27
1 -34 75 -4 41 -4 108 -1 148 l7 72 52 -1 c90 -1 87 -5 87 112 l0 104 -40 0
c-38 0 -40 2 -40 30 0 25 -4 30 -25 30 -14 0 -27 -6 -30 -12z m-17 -189 c-1
-37 -5 -66 -10 -63 -5 3 -16 0 -24 -7 -20 -17 -22 -12 -24 56 -3 84 -3 84 30
83 l30 -1 -2 -68z m617 -2269 c-3 -5 -11 -10 -16 -10 -6 0 -7 5 -4 10 3 6 11
10 16 10 6 0 7 -4 4 -10z m-795 -940 c0 -5 -5 -10 -11 -10 -5 0 -7 5 -4 10 3
6 8 10 11 10 2 0 4 -4 4 -10z"/>
<path d="M8332 6265 c4 -35 4 -35 -34 -35 l-38 0 0 -145 0 -145 145 0 145 0 0
-35 0 -35 59 0 c100 0 151 -10 151 -31 0 -36 12 -49 46 -49 32 0 34 -2 34 -35
0 -33 2 -35 35 -35 33 0 35 -2 35 -35 0 -33 2 -35 34 -35 33 0 35 -2 38 -37 3
-36 5 -38 41 -41 l37 -3 0 -70 0 -69 35 0 35 0 0 -69 0 -68 51 -6 c29 -4 79
-4 112 0 l59 6 -6 311 c-3 171 -6 332 -6 358 0 43 -2 47 -27 50 l-28 3 -3 143
-3 142 -475 0 -476 0 4 -35z"/>
<path d="M7648 6222 c-34 -3 -38 -6 -38 -31 l0 -28 -392 -8 c-337 -7 -428 -10
-470 -14 -5 -1 -8 -12 -8 -25 0 -23 -4 -25 -75 -31 l-75 -7 0 -52 c0 -28 3
-75 6 -103 l7 -53 42 0 c23 0 70 -3 104 -6 l61 -7 0 -33 c0 -32 2 -34 35 -34
l35 0 1 -195 c1 -107 3 -204 4 -215 1 -11 3 -51 4 -89 1 -68 2 -70 29 -73 l27
-3 11 -395 c7 -217 12 -396 13 -397 0 -2 6 -3 11 -3 6 0 11 15 11 33 l2 32 7
-35 c7 -34 7 -34 9 -6 0 16 4 26 7 23 4 -4 10 -226 13 -494 l6 -488 33 -3 32
-3 0 -295 0 -294 -35 0 c-32 0 -35 -2 -35 -30 0 -27 -3 -30 -32 -30 -43 0 -56
-10 -54 -40 1 -20 -5 -25 -29 -30 l-30 -5 0 -75 0 -75 35 -5 c29 -4 36 -10 38
-32 l3 -28 105 0 104 0 0 28 0 29 113 6 c61 4 273 7 469 7 l357 0 3 33 3 32
73 3 72 3 -2 327 -3 327 -25 4 c-14 1 -28 8 -32 15 -4 6 -8 144 -8 306 0 162
-3 366 -7 453 l-6 157 -29 0 -28 0 -1 188 c-1 103 -5 315 -8 472 l-6 285 -26
3 c-26 3 -26 4 -33 109 -3 58 -6 215 -6 348 0 133 -3 263 -6 290 -7 45 -8 47
-35 43 l-29 -5 0 114 0 114 -142 -3 c-79 -2 -160 -4 -180 -6z"/>
<path d="M5870 6051 c0 -27 -3 -29 -52 -35 -29 -3 -161 -6 -294 -6 l-241 0 1
-32 c1 -30 -2 -33 -33 -38 l-35 -5 0 -70 -1 -70 38 -3 c35 -3 37 -5 37 -38 0
-33 1 -34 40 -34 39 0 40 -1 40 -35 l0 -34 68 -3 67 -3 3 -37 c3 -34 6 -38 31
-38 34 0 41 -23 41 -136 l0 -74 35 0 35 0 1 -352 c2 -293 3 -401 9 -510 0 -5
14 -8 30 -8 28 0 30 -3 30 -34 0 -33 2 -35 37 -38 32 -3 38 -7 38 -28 5 -119
2 -110 40 -110 34 0 35 -1 35 -40 l0 -40 41 0 c24 0 38 -4 34 -10 -13 -22 6
-50 34 -50 27 0 28 1 30 64 l2 65 -33 3 -33 3 -3 363 -2 362 -35 0 c-33 0 -35
2 -35 35 0 30 3 35 23 35 28 0 42 11 41 30 -1 8 -2 21 -3 28 0 6 -14 12 -31
12 l-30 0 0 185 0 185 35 0 35 0 0 70 0 70 35 0 c33 0 35 2 35 35 0 33 2 35
35 35 28 0 36 4 41 24 3 14 3 29 0 35 -4 6 9 11 31 13 36 3 38 5 41 41 3 35 5
37 38 37 l34 0 0 70 0 70 -35 0 c-33 0 -35 2 -35 35 l0 35 -145 0 -145 0 0
-29z"/>
<path d="M4243 5933 c-39 -4 -43 -7 -43 -32 l0 -28 -437 -7 c-241 -4 -450 -8
-465 -8 -24 -1 -28 -6 -28 -30 0 -27 -1 -28 -54 -28 -29 0 -81 -3 -115 -6
l-61 -7 0 -33 c0 -32 -2 -34 -35 -34 l-35 0 0 -69 0 -69 70 -7 c68 -7 70 -8
70 -35 0 -27 1 -28 75 -35 l75 -7 0 -34 c0 -33 1 -34 40 -34 39 0 40 -1 40
-35 0 -32 2 -35 30 -35 28 0 30 -3 30 -34 0 -19 5 -38 10 -41 6 -3 11 -18 11
-33 2 -24 2 -24 6 -4 3 13 12 22 23 22 13 0 17 -5 14 -15 -4 -8 -2 -21 4 -28
6 -6 12 -28 14 -47 3 -32 5 -35 36 -34 31 1 32 -1 32 -38 0 -37 1 -38 34 -38
l34 0 7 -69 c7 -69 7 -70 38 -73 29 -3 32 -7 35 -40 3 -36 5 -38 37 -38 l34 0
3 -67 c3 -60 5 -68 23 -69 11 -1 25 -2 32 -3 6 -1 13 -18 15 -38 3 -36 5 -38
36 -38 30 1 32 -1 32 -37 0 -25 6 -40 18 -47 15 -9 15 -12 2 -21 -12 -8 -10
-10 10 -11 l25 -1 -25 -8 c-23 -7 -23 -7 10 -11 32 -4 35 -7 38 -41 3 -36 5
-38 38 -38 33 0 34 -1 34 -40 0 -39 1 -40 34 -40 33 0 34 -2 38 -42 3 -24 8
-52 12 -63 6 -16 6 -17 -3 -5 -9 13 -11 13 -11 -2 0 -17 15 -22 53 -19 14 2
17 -6 17 -38 0 -38 2 -40 33 -43 28 -3 33 -7 37 -37 4 -29 10 -36 36 -43 26
-7 32 -14 38 -45 3 -21 6 -50 6 -65 0 -25 4 -28 35 -28 34 0 35 -1 35 -40 0
-39 1 -40 35 -40 l34 0 3 -67 3 -68 32 -3 c28 -3 32 -7 35 -35 3 -28 7 -32 35
-35 31 -3 31 -4 38 -73 l7 -69 34 0 c33 0 34 -1 34 -40 0 -39 1 -40 35 -40 33
0 35 -2 35 -35 0 -30 3 -35 23 -35 12 0 29 -5 37 -10 12 -8 13 -12 2 -19 -17
-10 -15 -23 4 -34 8 -5 14 -23 14 -42 0 -32 2 -35 30 -35 24 0 30 -4 31 -22 1
-13 2 -30 3 -38 1 -10 14 -16 39 -18 l37 -3 0 -70 0 -69 34 0 c33 0 35 -2 38
-37 3 -34 6 -38 35 -41 31 -3 31 -4 38 -73 l7 -69 34 0 c32 0 34 -2 34 -35 0
-33 2 -35 35 -35 l35 0 0 -70 0 -70 35 0 c34 0 35 -1 35 -40 l0 -40 50 0 c28
0 50 -4 50 -10 0 -5 -6 -10 -12 -10 -9 0 -8 -4 2 -10 23 -15 30 -12 31 13 1
18 3 16 9 -8 l8 -30 1 27 1 28 293 2 292 3 4 35 c1 19 0 230 -4 468 l-7 432
-29 0 -29 0 0 93 c0 50 -3 115 -6 144 -6 49 -8 52 -38 55 l-31 3 -3 73 -3 72
-34 0 c-33 0 -35 2 -35 35 0 33 -2 35 -34 35 l-34 0 -7 70 -7 70 -34 0 c-33 0
-34 1 -34 40 0 39 -1 40 -35 40 l-35 0 0 70 0 70 -35 0 c-28 0 -35 4 -35 19 0
37 -12 51 -41 51 -27 0 -29 3 -29 40 0 39 -1 40 -34 40 l-34 0 -7 70 -7 70
-34 0 c-32 0 -34 2 -34 35 0 33 -2 35 -35 35 -34 0 -35 1 -35 40 0 38 -2 40
-30 40 -36 0 -41 9 -43 81 -2 54 -2 54 -37 59 -32 5 -35 8 -38 43 -3 35 -5 37
-38 37 l-34 0 0 70 0 70 -34 0 c-33 0 -35 2 -38 38 -3 33 -6 37 -34 40 -30 3
-31 5 -40 70 -9 66 -10 67 -39 67 -27 1 -30 4 -33 37 -3 33 -6 37 -35 40 -26
2 -32 8 -32 28 -5 119 -2 110 -39 110 -33 0 -35 2 -38 38 -2 30 -7 37 -25 38
-13 1 -27 2 -33 3 -5 0 -10 17 -10 36 0 28 -4 35 -20 36 -11 1 -26 2 -32 3 -8
1 -17 27 -22 69 l-9 67 -34 0 c-32 0 -33 1 -33 40 0 39 -1 40 -34 40 -32 0
-35 3 -38 33 l-3 32 -65 1 c-36 0 -84 -1 -107 -3z m-933 -116 c10 -4 8 -6 -7
-6 -16 -1 -23 5 -23 17 0 10 3 13 8 6 4 -6 14 -14 22 -17z"/>
<path d="M8770 5251 c0 -27 -3 -30 -37 -33 l-38 -3 -3 -72 c-3 -70 -4 -72 -30
-75 -23 -3 -28 -9 -34 -43 -4 -22 -7 -70 -7 -107 l-1 -68 -35 0 c-33 0 -35 -2
-35 -35 0 -33 -2 -35 -34 -35 -33 0 -35 -2 -38 -37 -3 -34 -6 -38 -34 -41 -29
-3 -32 -6 -38 -49 -9 -64 -8 -303 2 -304 4 -1 20 -2 37 -3 25 -1 31 -7 35 -31
l6 -30 7 28 c7 26 27 38 27 16 0 -5 4 -8 8 -5 5 3 9 -1 9 -9 0 -18 -23 -20
-30 -2 -3 7 -6 5 -6 -5 -1 -11 6 -18 17 -18 10 0 22 -3 26 -7 4 -4 23 -6 42
-4 34 3 34 2 34 -38 0 -40 1 -41 35 -41 l34 0 3 -72 3 -73 38 -3 37 -3 0 -70
0 -69 35 0 c33 0 35 -2 35 -35 l0 -35 75 0 75 0 0 35 c0 32 2 35 30 35 l31 0
-3 68 c-3 64 -4 67 -29 70 l-26 3 -6 166 c-4 91 -7 271 -7 400 0 179 -3 233
-12 235 -7 0 -20 1 -28 2 -19 1 -27 74 -29 244 l-1 122 -35 0 c-32 0 -35 2
-35 30 0 28 -3 30 -35 30 -32 0 -35 -2 -35 -29z"/>
<path d="M3441 5244 c0 -11 3 -14 6 -6 3 7 2 16 -1 19 -3 4 -6 -2 -5 -13z"/>
<path d="M3433 4843 c-14 -5 -18 -39 -5 -46 4 -2 1 -2 -7 0 -11 3 -12 -12 -8
-74 3 -43 6 -79 7 -80 0 -1 12 -3 28 -5 l27 -3 3 -327 2 -328 35 0 34 0 1
-319 c0 -261 3 -325 15 -348 14 -26 15 -27 15 -5 0 20 3 21 20 12 24 -13 26
-33 5 -50 -10 -9 -15 -9 -15 -1 0 8 -6 7 -20 -1 -18 -11 -20 -22 -18 -83 l3
-70 33 -3 32 -3 -1 -72 c0 -40 -4 -81 -9 -92 -8 -19 -9 -19 -9 3 -1 15 -7 22
-22 22 -17 0 -20 -5 -17 -32 2 -18 5 -31 8 -29 3 2 15 -1 28 -8 22 -12 31 -41
12 -41 -5 0 -10 -5 -10 -11 0 -5 5 -7 10 -4 6 4 10 -12 10 -39 0 -46 0 -46
-35 -46 -34 0 -35 -1 -35 -40 0 -39 -1 -40 -34 -40 l-33 0 -7 -69 -7 -70 -64
-6 c-63 -7 -64 -8 -67 -39 -3 -28 -7 -31 -40 -34 l-38 -3 0 -73 c0 -40 3 -76
8 -80 4 -4 7 -17 7 -29 0 -22 0 -22 250 -22 272 0 312 4 307 28 -5 29 31 34
233 36 110 2 201 4 203 6 2 2 4 50 5 107 l2 103 -37 3 c-34 3 -38 6 -38 32 0
27 -1 28 -70 35 l-70 7 0 34 c0 33 -1 34 -40 34 -22 0 -39 3 -39 8 1 4 1 19 0
34 -1 23 -6 27 -33 30 -36 3 -35 2 -37 91 l-1 57 -35 0 -35 0 0 395 0 395 -35
0 -35 0 0 234 c0 128 -3 261 -6 295 -7 59 -8 61 -35 61 l-29 0 0 88 c0 48 -3
111 -6 140 -6 49 -9 52 -34 52 -27 0 -28 2 -35 70 l-7 70 -34 0 c-33 0 -34 1
-34 40 l0 40 -43 0 c-43 0 -44 0 -41 33 3 29 3 29 -5 7 l-8 -25 -4 26 c-2 15
-9 24 -16 22z m157 -1904 c0 -11 -4 -17 -10 -14 -5 3 -10 13 -10 21 0 8 5 14
10 14 6 0 10 -9 10 -21z"/>
<path d="M14348 4388 c-3 -57 -2 -251 1 -433 l6 -330 22 0 c12 0 26 -4 30 -9
10 -9 10 -9 11 -210 l2 -158 23 5 c33 9 51 -6 45 -37 -3 -15 -1 -29 3 -32 5
-3 41 -2 79 2 l70 7 0 33 c0 32 2 34 35 34 33 0 35 2 35 35 l0 35 145 0 145 0
0 -35 0 -35 99 0 c54 0 119 -3 145 -6 43 -6 46 -9 46 -35 l0 -29 105 0 105 0
0 139 0 140 -70 7 -70 7 0 33 0 34 -75 0 -75 0 0 35 c0 35 0 35 -47 37 -27 0
-52 2 -58 3 -5 2 -16 3 -22 4 -7 0 -13 14 -13 31 0 28 -3 30 -35 30 -33 0 -35
2 -35 34 0 33 -2 35 -37 38 -36 3 -38 5 -41 41 -3 34 -6 37 -33 37 -25 0 -29
4 -29 29 0 17 -5 33 -11 36 -6 4 -8 14 -5 22 3 8 1 11 -4 8 -5 -3 -12 6 -16
20 -5 19 -11 24 -25 20 -17 -6 -19 -1 -19 39 0 43 -1 45 -32 48 l-33 3 -3 68
-3 67 -33 0 -34 0 -7 70 c-7 68 -8 70 -35 70 -28 0 -28 1 -35 75 l-7 75 -103
0 -102 0 -5 -102z m458 -437 c-4 -5 0 -11 6 -14 7 -2 11 -7 8 -10 -9 -10 -33
10 -26 22 4 6 9 11 12 11 3 0 3 -4 0 -9z"/>
<path d="M9277 3773 c-4 -37 -7 -97 -7 -133 0 -64 -8 -93 -26 -89 -40 7 -44 0
-44 -71 l0 -70 -35 0 c-34 0 -35 -1 -35 -40 0 -39 -1 -40 -35 -40 -33 0 -35
-2 -35 -34 0 -32 -3 -35 -32 -38 -29 -3 -34 -7 -38 -38 -4 -31 -9 -36 -40 -40
-31 -4 -35 -9 -38 -37 -3 -30 -6 -33 -38 -33 -32 0 -34 -2 -34 -35 l0 -35 -75
0 -75 0 0 -35 0 -35 -70 0 -70 0 0 -145 0 -145 129 0 c70 0 149 3 175 6 40 6
46 10 46 30 0 13 -4 24 -9 24 -5 0 -7 -9 -4 -20 4 -16 0 -20 -20 -20 -20 0
-24 4 -20 19 3 11 15 22 26 25 12 3 171 6 352 6 182 0 336 4 344 9 8 5 11 16
8 25 -4 10 -1 16 8 16 8 0 15 4 15 10 0 5 6 9 13 7 8 -1 13 20 15 76 l3 77
-29 0 -29 0 -6 218 c-4 119 -7 299 -7 400 l0 182 -29 0 c-26 0 -30 4 -33 33
l-3 32 -106 3 -106 3 -6 -68z"/>
<path d="M13005 3350 c-3 -5 1 -10 10 -10 9 0 13 5 10 10 -3 6 -8 10 -10 10
-2 0 -7 -4 -10 -10z"/>
<path d="M5023 1794 c9 -3 15 -9 12 -14 -3 -5 0 -12 6 -15 7 -5 10 0 7 11 -2
10 -12 20 -23 21 -16 1 -16 1 -2 -3z"/>
<path d="M8283 11773 c9 -2 23 -2 30 0 6 3 -1 5 -18 5 -16 0 -22 -2 -12 -5z"/>
<path d="M2332 2510 c0 -14 2 -19 5 -12 2 6 2 18 0 25 -3 6 -5 1 -5 -13z"/>
<path d="M16490 2350 c-12 -8 -10 -10 8 -10 13 0 20 4 17 10 -7 12 -6 12 -25
0z"/>
<path d="M16171 2336 c-10 -12 -8 -13 8 -9 12 3 21 9 21 14 0 14 -16 11 -29
-5z"/>
</g>
</svg>
